<svg width="42" height="42" viewBox="0 0 42 42" fill="none" xmlns="http://www.w3.org/2000/svg">
<path d="M35 8.75C35 11.6495 28.732 14 21 14C13.268 14 7 11.6495 7 8.75M35 8.75C35 5.85051 28.732 3.5 21 3.5C13.268 3.5 7 5.85051 7 8.75M35 8.75V33.25C35 36.1495 28.732 38.5 21 38.5C13.268 38.5 7 36.1495 7 33.25V8.75M35 16.9166C35 19.816 28.732 22.1666 21 22.1666C13.268 22.1666 7 19.816 7 16.9166M35 25.0775C35 27.977 28.732 30.3275 21 30.3275C13.268 30.3275 7 27.977 7 25.0775" stroke="black" stroke-width="2" stroke-linecap="round" stroke-linejoin="round"/>
</svg>
