<svg width="42" height="42" viewBox="0 0 42 42" fill="none" xmlns="http://www.w3.org/2000/svg">
<path d="M10.5 10.5L14 7M14 7L10.5 3.5M14 7H10.5C6.63401 7 3.5 10.134 3.5 14M31.5 31.5L28 35M28 35L31.5 38.5M28 35H31.5C35.366 35 38.5 31.866 38.5 28M23.48 23.48C24.849 24.1339 26.3817 24.5 28 24.5C33.799 24.5 38.5 19.799 38.5 14C38.5 8.20101 33.799 3.5 28 3.5C22.201 3.5 17.5 8.20101 17.5 14C17.5 15.6183 17.8661 17.151 18.5199 18.52M24.5 28C24.5 33.799 19.799 38.5 14 38.5C8.20101 38.5 3.5 33.799 3.5 28C3.5 22.201 8.20101 17.5 14 17.5C19.799 17.5 24.5 22.201 24.5 28Z" stroke="black" stroke-width="2" stroke-linecap="round" stroke-linejoin="round"/>
</svg>
