<svg width="42" height="42" viewBox="0 0 42 42" fill="none" xmlns="http://www.w3.org/2000/svg">
<path d="M14.875 25.375C16.0353 25.375 17.1481 24.9141 17.9686 24.0936C18.7891 23.2731 19.25 22.1603 19.25 21C19.25 18.585 18.375 17.5 17.5 15.75C15.624 11.9998 17.108 8.6555 21 5.25C21.875 9.625 24.5 13.825 28 16.625C31.5 19.425 33.25 22.75 33.25 26.25C33.25 27.8587 32.9331 29.4516 32.3175 30.9379C31.7019 32.4241 30.7996 33.7745 29.6621 34.9121C28.5245 36.0496 27.1741 36.9519 25.6879 37.5675C24.2016 38.1831 22.6087 38.5 21 38.5C19.3913 38.5 17.7984 38.1831 16.3121 37.5675C14.8259 36.9519 13.4755 36.0496 12.3379 34.9121C11.2004 33.7745 10.2981 32.4241 9.68248 30.9379C9.06686 29.4516 8.75 27.8587 8.75 26.25C8.75 24.2323 9.50775 22.2355 10.5 21C10.5 22.1603 10.9609 23.2731 11.7814 24.0936C12.6019 24.9141 13.7147 25.375 14.875 25.375Z" stroke="black" stroke-width="2" stroke-linecap="round" stroke-linejoin="round"/>
</svg>
