<svg width="42" height="42" viewBox="0 0 42 42" fill="none" xmlns="http://www.w3.org/2000/svg">
<path d="M14 14V12.25M14 21.875V20.125M14 29.75V28M11.9 35H30.1C33.0403 35 34.5104 35 35.6334 34.4278C36.6213 33.9244 37.4244 33.1213 37.9278 32.1335C38.5 31.0104 38.5 29.5403 38.5 26.6V15.4C38.5 12.4597 38.5 10.9896 37.9278 9.86655C37.4244 8.8787 36.6213 8.07555 35.6334 7.57222C34.5104 7 33.0403 7 30.1 7H11.9C8.95972 7 7.48959 7 6.36655 7.57222C5.3787 8.07555 4.57555 8.8787 4.07222 9.86655C3.5 10.9896 3.5 12.4597 3.5 15.4V26.6C3.5 29.5403 3.5 31.0104 4.07222 32.1335C4.57555 33.1213 5.3787 33.9244 6.36655 34.4278C7.48959 35 8.95972 35 11.9 35Z" stroke="black" stroke-width="2" stroke-linecap="round" stroke-linejoin="round"/>
</svg>
