<svg width="56" height="56" viewBox="0 0 56 56" fill="none" xmlns="http://www.w3.org/2000/svg">
<circle cx="28" cy="28" r="27.5" stroke="#70707B"/>
<path d="M24.5 30.5C25.163 30.5 25.7989 30.2366 26.2678 29.7678C26.7366 29.2989 27 28.663 27 28C27 26.62 26.5 26 26 25C24.928 22.857 25.776 20.946 28 19C28.5 21.5 30 23.9 32 25.5C34 27.1 35 29 35 31C35 31.9193 34.8189 32.8295 34.4672 33.6788C34.1154 34.5281 33.5998 35.2997 32.9497 35.9497C32.2997 36.5998 31.5281 37.1154 30.6788 37.4672C29.8295 37.8189 28.9193 38 28 38C27.0807 38 26.1705 37.8189 25.3212 37.4672C24.4719 37.1154 23.7003 36.5998 23.0503 35.9497C22.4002 35.2997 21.8846 34.5281 21.5328 33.6788C21.1811 32.8295 21 31.9193 21 31C21 29.847 21.433 28.706 22 28C22 28.663 22.2634 29.2989 22.7322 29.7678C23.2011 30.2366 23.837 30.5 24.5 30.5Z" stroke="white" stroke-width="2" stroke-linecap="round" stroke-linejoin="round"/>
</svg>
